<svg width="91" height="91" viewBox="0 0 91 91" fill="none" xmlns="http://www.w3.org/2000/svg">
<path d="M45.0052 90.0104C69.8609 90.0104 90.0104 69.8609 90.0104 45.0052C90.0104 20.1495 69.8609 0 45.0052 0C20.1495 0 0 20.1495 0 45.0052C0 69.8609 20.1495 90.0104 45.0052 90.0104Z" fill="white"/>
<path d="M46.1835 78.8645C27.3653 78.8645 12.0557 63.6997 12.0557 45.0055C12.0557 26.3114 27.3722 11.1534 46.1835 11.1534C52.731 11.1409 59.1438 13.0121 64.6571 16.5438C65.6195 17.1603 66.4329 17.9829 67.0384 18.9522C67.6439 19.9215 68.0265 21.0133 68.1584 22.1485C68.2904 23.2838 68.1684 24.4342 67.8012 25.5166C67.4341 26.5989 66.8311 27.5861 66.0357 28.4069C64.7793 29.6881 63.119 30.4963 61.3356 30.6947C59.5521 30.8932 57.7548 30.4697 56.2475 29.496C53.5437 27.7461 50.4294 26.7337 47.2135 26.5594C43.9976 26.3851 40.792 27.0548 37.9149 28.5021C35.0379 29.9495 32.5893 32.1241 30.8124 34.8101C29.0354 37.4961 27.9918 40.6002 27.7852 43.8141C27.5785 47.0281 28.216 50.2402 29.6344 53.1317C31.0527 56.0232 33.2026 58.4934 35.8707 60.2973C38.5387 62.1012 41.6321 63.1759 44.8439 63.4148C48.0556 63.6537 51.274 63.0485 54.1795 61.6593C54.5595 61.4822 54.8906 61.2151 55.144 60.8812C55.3974 60.5473 55.5656 60.1566 55.634 59.743C55.7253 59.3071 55.7097 58.8555 55.5885 58.427C55.4672 57.9984 55.244 57.6056 54.9378 57.2822C54.5315 56.8514 54.0003 56.5591 53.419 56.4466C52.8377 56.334 52.2357 56.4069 51.698 56.6549C49.5598 57.6564 47.1872 58.0501 44.8402 57.7928C42.4931 57.5354 40.2622 56.637 38.3918 55.196C36.5214 53.7549 35.0838 51.8269 34.2364 49.6231C33.389 47.4192 33.1646 45.0247 33.5877 42.7018C34.0108 40.3789 35.0651 38.2173 36.6352 36.4538C38.2052 34.6903 40.2304 33.393 42.4887 32.704C44.7471 32.015 47.1516 31.961 49.4386 32.5478C51.7256 33.1345 53.8071 34.3395 55.4548 36.0307C55.6756 36.257 55.8498 36.5246 55.9672 36.8182C56.0847 37.1118 56.1432 37.4256 56.1393 37.7418C56.1355 38.058 56.0694 38.3704 55.9449 38.661C55.8203 38.9517 55.6397 39.215 55.4134 39.4359C55.1871 39.6567 54.9195 39.8309 54.6259 39.9483C54.3323 40.0658 54.0184 40.1243 53.7022 40.1204C53.386 40.1166 53.0737 40.0505 52.783 39.926C52.4924 39.8014 52.2291 39.6208 52.0082 39.3945C50.9778 38.3289 49.6736 37.5679 48.2389 37.1951C46.8043 36.8223 45.2946 36.8521 43.8758 37.2812C42.4569 37.7103 41.1838 38.5222 40.1962 39.6276C39.2086 40.733 38.5448 42.0892 38.2776 43.5473C38.0105 45.0053 38.1503 46.5088 38.6818 47.8926C39.2133 49.2763 40.1159 50.4868 41.2904 51.3911C42.465 52.2954 43.866 52.8585 45.3397 53.0186C46.8133 53.1786 48.3026 52.9295 49.6439 52.2984C50.9123 51.712 52.3172 51.4841 53.7059 51.6396C55.0947 51.795 56.4144 52.3279 57.5218 53.1803C58.6292 54.0326 59.482 55.172 59.9876 56.4748C60.4933 57.7775 60.6326 59.1939 60.3902 60.5702C60.1844 61.7365 59.7012 62.8362 58.9814 63.7767C58.2617 64.7172 57.3264 65.471 56.2544 65.9744C52.5944 67.7162 48.5429 68.4716 44.5011 68.1656C40.4594 67.8597 36.5677 66.5031 33.2116 64.2302C29.8556 61.9573 27.1516 58.847 25.3675 55.2075C23.5834 51.5679 22.7812 47.5254 23.0404 43.4804C23.2995 39.4354 24.611 35.5283 26.8448 32.1461C29.0787 28.764 32.1575 26.0241 35.7762 24.1981C39.3948 22.372 43.4278 21.523 47.4755 21.7353C51.5233 21.9476 55.4453 23.2138 58.8531 25.4084C59.4202 25.7918 60.1038 25.9646 60.785 25.8966C61.4662 25.8286 62.1021 25.5241 62.5823 25.0361C62.8819 24.7401 63.1122 24.3813 63.2564 23.9856C63.4006 23.5898 63.4553 23.167 63.4163 22.7476C63.3639 22.3074 63.2126 21.8847 62.9739 21.5111C62.7352 21.1375 62.4152 20.8226 62.0377 20.5901C57.623 17.7743 52.5358 16.19 47.3029 16.0011C42.0701 15.8123 36.8819 17.0257 32.2756 19.5159C27.6694 22.006 23.8126 25.6822 21.1046 30.1639C18.3967 34.6455 16.936 39.7696 16.874 45.0055C16.9376 50.7334 18.6747 56.3176 21.8715 61.0708C25.0683 65.824 29.5852 69.5387 34.8662 71.7576C40.1472 73.9766 45.9618 74.6028 51.5941 73.5594C57.2265 72.5159 62.4309 69.8482 66.5665 65.8848C66.785 65.6321 67.0538 65.4276 67.3557 65.2845C67.6576 65.1413 67.9859 65.0627 68.3199 65.0535C68.6539 65.0442 68.9861 65.1047 69.2954 65.2309C69.6048 65.3572 69.8844 65.5465 70.1165 65.7868C70.3486 66.0271 70.5282 66.3131 70.6437 66.6266C70.7592 66.9401 70.8081 67.2743 70.7873 67.6077C70.7666 67.9412 70.6766 68.2666 70.5231 68.5634C70.3696 68.8602 70.156 69.1217 69.8959 69.3313C63.5276 75.4647 55.025 78.883 46.1835 78.8645Z" fill="black"/>
</svg>
