<svg width="243" height="39" viewBox="0 0 243 39" fill="none" xmlns="http://www.w3.org/2000/svg">
<path d="M19.2818 39C29.9309 39 38.5637 30.2696 38.5637 19.5C38.5637 8.73045 29.9309 0 19.2818 0C8.63277 0 0 8.73045 0 19.5C0 30.2696 8.63277 39 19.2818 39Z" fill="#39E25E"/>
<path d="M155.811 15.9188C156.452 15.9188 157.066 15.6614 157.52 15.2032C157.973 14.7451 158.227 14.1237 158.227 13.4757C158.227 12.8278 157.973 12.2063 157.52 11.7482C157.066 11.29 156.452 11.0326 155.811 11.0326H153.322V8.51484C153.334 8.13191 153.27 7.7504 153.134 7.39299C152.997 7.03558 152.791 6.70956 152.527 6.4343C152.264 6.15905 151.948 5.94018 151.6 5.79071C151.251 5.64123 150.876 5.56421 150.497 5.56421C150.118 5.56421 149.743 5.64123 149.394 5.79071C149.045 5.94018 148.73 6.15905 148.466 6.4343C148.203 6.70956 147.997 7.03558 147.86 7.39299C147.724 7.7504 147.66 8.13191 147.672 8.51484V11.0326H147.486C146.845 11.0326 146.231 11.29 145.778 11.7482C145.325 12.2063 145.07 12.8278 145.07 13.4757C145.07 14.1237 145.325 14.7451 145.778 15.2032C146.231 15.6614 146.845 15.9188 147.486 15.9188H147.663V25.4762C147.663 30.1384 150.002 31.5272 153.461 31.5272C154.57 31.5603 155.674 31.3684 156.709 30.9627C157.134 30.7925 157.499 30.4977 157.758 30.1161C158.016 29.7346 158.156 29.2837 158.159 28.8212C158.154 28.1948 157.905 27.5955 157.467 27.1525C157.029 26.7096 156.437 26.4583 155.817 26.4528C155.705 26.4528 155.333 26.4916 155.147 26.4916C153.883 26.4916 153.328 25.8525 153.328 24.5354V15.9188H155.811Z" fill="white"/>
<path d="M65.2046 24.7894C64.6544 24.7998 64.1213 24.9847 63.6807 25.3181C62.6451 26.2132 61.3278 26.7056 59.9655 26.7069C56.8794 26.7069 54.9095 24.2279 54.9095 21.1427V21.068C54.9095 18.0993 56.9177 15.5815 59.7411 15.5815C61.0361 15.5619 62.2945 16.0158 63.285 16.8598C63.7533 17.226 64.3291 17.4236 64.9211 17.4213C65.2555 17.4249 65.5872 17.3615 65.8973 17.2349C66.2074 17.1083 66.4897 16.921 66.7279 16.6837C66.9662 16.4463 67.1556 16.1637 67.2855 15.8521C67.4153 15.5404 67.483 15.2059 67.4845 14.8677C67.4879 14.4958 67.4103 14.1278 67.2571 13.7897C67.104 13.4516 66.8792 13.1517 66.5985 12.9114C64.927 11.4838 62.8065 10.6565 59.806 10.6565C53.7105 10.6565 49.3604 15.3934 49.3604 21.1427V21.2204C49.3604 26.9697 53.7459 31.6319 59.7322 31.6319C63.0015 31.6319 65.1189 30.5806 66.7934 29.0395C67.1611 28.714 67.4218 28.2827 67.5404 27.8032C67.659 27.3238 67.6299 26.8192 67.4571 26.357C67.2843 25.8947 66.976 25.4969 66.5734 25.2167C66.1708 24.9366 65.6932 24.7875 65.2046 24.7894Z" fill="white"/>
<path d="M126.675 10.806C125.198 10.806 124.333 11.7856 123.96 12.9863L120.839 23.2963L117.679 13.0699C117.271 11.7169 116.232 10.7791 114.782 10.7791H114.445C112.998 10.7791 111.955 11.7169 111.548 13.0699L108.426 23.2485L105.376 13.0251C104.968 11.708 104.038 10.806 102.626 10.806C102.278 10.7916 101.931 10.8478 101.605 10.9712C101.279 11.0947 100.981 11.2829 100.728 11.5248C100.475 11.7667 100.272 12.0574 100.132 12.3797C99.9922 12.702 99.9173 13.0494 99.9121 13.4014C99.9311 13.875 100.02 14.343 100.175 14.7902L105.042 29.0008C105.633 30.7659 106.79 31.5574 108.164 31.5574H108.35C109.726 31.5574 110.878 30.7659 111.397 29.1143L114.587 18.9656L117.747 29.1203C118.267 30.7719 119.418 31.5634 120.795 31.5634H120.981C122.354 31.5634 123.506 30.7719 124.102 29.0068L129.123 14.611C129.229 14.2304 129.292 13.8385 129.309 13.4432C129.314 13.0933 129.249 12.7459 129.118 12.4219C128.987 12.098 128.792 11.8041 128.546 11.5579C128.3 11.3116 128.008 11.1181 127.686 10.9889C127.365 10.8597 127.021 10.7975 126.675 10.806Z" fill="white"/>
<path d="M137.303 10.8058C136.932 10.8055 136.564 10.8791 136.221 11.0226C135.878 11.1661 135.566 11.3766 135.303 11.6421C135.041 11.9076 134.833 12.2229 134.691 12.5698C134.549 12.9168 134.476 13.2886 134.477 13.6641V28.5497C134.5 29.2914 134.808 29.9946 135.335 30.5108C135.863 31.027 136.568 31.3156 137.301 31.3156C138.035 31.3156 138.74 31.027 139.267 30.5108C139.794 29.9946 140.102 29.2914 140.126 28.5497V13.6641C140.127 13.2889 140.054 12.9173 139.912 12.5705C139.77 12.2238 139.562 11.9086 139.3 11.6432C139.038 11.3777 138.727 11.1672 138.384 11.0235C138.041 10.8798 137.674 10.8058 137.303 10.8058Z" fill="white"/>
<path d="M137.303 3.55096C135.806 3.55096 134.645 4.56643 134.645 6.22105V6.29572C134.613 6.66723 134.657 7.04151 134.775 7.39476C134.894 7.74801 135.083 8.0725 135.332 8.34759C135.581 8.62269 135.884 8.84236 136.222 8.99265C136.559 9.14294 136.924 9.22055 137.293 9.22055C137.661 9.22055 138.026 9.14294 138.364 8.99265C138.701 8.84236 139.004 8.62269 139.253 8.34759C139.502 8.0725 139.692 7.74801 139.81 7.39476C139.928 7.04151 139.973 6.66723 139.94 6.29572V6.22105C139.949 4.56643 138.803 3.55096 137.303 3.55096Z" fill="white"/>
<path d="M174.951 10.6561C172.089 10.6561 170.415 12.1972 169.115 13.8876V6.37017C169.092 5.6285 168.784 4.92523 168.257 4.40907C167.729 3.8929 167.024 3.60431 166.291 3.60431C165.557 3.60431 164.852 3.8929 164.325 4.40907C163.798 4.92523 163.49 5.6285 163.466 6.37017V28.5492C163.49 29.2909 163.798 29.9942 164.325 30.5103C164.852 31.0265 165.557 31.3151 166.291 31.3151C167.024 31.3151 167.729 31.0265 168.257 30.5103C168.784 29.9942 169.092 29.2909 169.115 28.5492V19.9416C169.115 17.2357 170.492 15.8439 172.659 15.8439C174.827 15.8439 176.079 17.2357 176.079 19.9416V28.5492C176.103 29.2909 176.411 29.9942 176.938 30.5103C177.465 31.0265 178.17 31.3151 178.904 31.3151C179.638 31.3151 180.343 31.0265 180.87 30.5103C181.397 29.9942 181.705 29.2909 181.729 28.5492V18.1377C181.717 13.5143 179.224 10.6561 174.951 10.6561Z" fill="white"/>
<path d="M211.598 10.6565C208.884 10.6565 206.802 11.7855 205.053 13.8522C204.014 11.8213 202.044 10.6565 199.442 10.6565C196.58 10.6565 194.87 12.1976 193.568 13.8881V13.6641C193.58 13.2811 193.516 12.8996 193.38 12.5422C193.243 12.1848 193.037 11.8588 192.774 11.5835C192.51 11.3083 192.195 11.0894 191.846 10.9399C191.497 10.7905 191.122 10.7134 190.743 10.7134C190.364 10.7134 189.989 10.7905 189.641 10.9399C189.292 11.0894 188.976 11.3083 188.713 11.5835C188.449 11.8588 188.243 12.1848 188.107 12.5422C187.97 12.8996 187.906 13.2811 187.918 13.6641V28.5497C187.942 29.2913 188.25 29.9946 188.777 30.5108C189.305 31.0269 190.01 31.3155 190.743 31.3155C191.477 31.3155 192.182 31.0269 192.709 30.5108C193.236 29.9946 193.544 29.2913 193.568 28.5497V19.9421C193.568 17.2361 194.87 15.8443 196.988 15.8443C199.105 15.8443 200.296 17.2361 200.296 19.9421V28.5497C200.296 29.3077 200.593 30.0347 201.123 30.5707C201.653 31.1068 202.372 31.4079 203.122 31.4079C203.871 31.4079 204.59 31.1068 205.12 30.5707C205.65 30.0347 205.948 29.3077 205.948 28.5497V19.9421C205.948 17.2361 207.248 15.8443 209.365 15.8443C211.483 15.8443 212.676 17.2361 212.676 19.9421V28.5497C212.699 29.2913 213.007 29.9946 213.535 30.5108C214.062 31.0269 214.767 31.3155 215.5 31.3155C216.234 31.3155 216.939 31.0269 217.466 30.5108C217.994 29.9946 218.302 29.2913 218.325 28.5497V18.0605C218.325 13.2131 215.797 10.6565 211.598 10.6565Z" fill="white"/>
<path d="M243 20.3542C243 16.1729 240.064 10.6565 233.411 10.6565C227.613 10.6565 223.562 15.3934 223.562 21.1427V21.2204C223.562 27.3849 227.991 31.6319 233.969 31.6319C236.869 31.6319 239.134 30.6911 240.882 29.1888C241.118 28.9761 241.306 28.7151 241.435 28.4231C241.563 28.1311 241.628 27.8149 241.627 27.4954C241.636 27.1998 241.586 26.9053 241.479 26.6299C241.373 26.3544 241.212 26.1037 241.007 25.8929C240.802 25.6821 240.556 25.5156 240.286 25.4035C240.015 25.2913 239.725 25.2358 239.432 25.2404C238.936 25.2218 238.449 25.3792 238.056 25.6854C236.905 26.5766 235.492 27.0529 234.043 27.0384C231.515 27.0384 229.731 25.6854 229.173 23.093H240.363C241.848 23.099 243 22.0088 243 20.3542ZM229.099 19.5269C229.545 16.9345 231.069 15.2321 233.411 15.2321C235.753 15.2321 237.276 16.9614 237.61 19.515L229.099 19.5269Z" fill="white"/>
<path d="M80.6919 14.1181C80.9693 13.9305 81.1957 13.6755 81.3504 13.3766C81.5052 13.0776 81.5834 12.7442 81.5779 12.4068C81.5584 11.8616 81.3368 11.3439 80.957 10.9565C80.5772 10.5691 80.0672 10.3405 79.5284 10.3161C79.1185 10.3105 78.7133 10.4048 78.3471 10.5909C74.1269 13.0399 72.0596 16.3372 72.0596 20.6589C72.0596 24.9807 74.1121 28.278 78.3293 30.742C78.6963 30.9259 79.1011 31.0191 79.5106 31.0137C80.0495 30.9893 80.5595 30.7607 80.9393 30.3733C81.319 29.986 81.5407 29.4682 81.5602 28.9231C81.5648 28.5871 81.4861 28.2553 81.3313 27.9579C81.1766 27.6606 80.9507 27.4071 80.6742 27.2207C78.0163 25.2883 76.9708 23.4515 76.9708 20.6679C76.9708 17.8843 78.0754 16.0147 80.6919 14.1181Z" fill="white"/>
<path d="M89.5514 10.5787C89.1856 10.3914 88.7801 10.2971 88.3701 10.3039C87.8312 10.3283 87.3212 10.557 86.9415 10.9444C86.5617 11.3317 86.34 11.8495 86.3205 12.3946C86.3157 12.7303 86.3942 13.0618 86.549 13.3587C86.7038 13.6556 86.9299 13.9085 87.2065 14.094C89.8644 16.0294 90.9128 17.8662 90.9128 20.6468C90.9128 23.4274 89.8379 25.2941 87.2213 27.1906C86.9439 27.3783 86.7175 27.6332 86.5628 27.9322C86.408 28.2311 86.3298 28.5646 86.3353 28.902C86.3548 29.4471 86.5765 29.9648 86.9562 30.3522C87.336 30.7396 87.846 30.9682 88.3849 30.9926C88.7947 30.9982 89.1999 30.904 89.5662 30.7179C93.7864 28.2568 95.8359 24.9566 95.8359 20.6348C95.8359 16.3131 93.7746 13.0397 89.5514 10.5787Z" fill="white"/>
<path d="M19.7866 34.1707C11.7242 34.1707 5.16504 27.6 5.16504 19.5001C5.16504 11.4002 11.7272 4.83255 19.7866 4.83255C22.5918 4.82714 25.3393 5.6379 27.7014 7.16813C28.1137 7.43523 28.4622 7.79166 28.7216 8.21165C28.981 8.63163 29.1449 9.10468 29.2015 9.59657C29.258 10.0885 29.2057 10.5869 29.0484 11.0559C28.8911 11.5248 28.6328 11.9526 28.292 12.3082C27.7537 12.8633 27.0424 13.2135 26.2783 13.2995C25.5142 13.3855 24.7442 13.202 24.0984 12.7801C22.94 12.0219 21.6057 11.5833 20.2279 11.5077C18.8501 11.4322 17.4767 11.7224 16.2441 12.3495C15.0114 12.9766 13.9624 13.9188 13.2011 15.0826C12.4398 16.2464 11.9927 17.5913 11.9041 18.9839C11.8156 20.3765 12.0887 21.7682 12.6964 23.0211C13.3041 24.2739 14.2252 25.3442 15.3682 26.1258C16.5113 26.9074 17.8366 27.373 19.2127 27.4765C20.5887 27.5801 21.9676 27.3178 23.2124 26.7159C23.3752 26.6392 23.517 26.5235 23.6256 26.3788C23.7342 26.2341 23.8063 26.0648 23.8355 25.8856C23.8747 25.6967 23.868 25.5011 23.816 25.3154C23.7641 25.1297 23.6684 24.9595 23.5373 24.8194C23.3632 24.6327 23.1356 24.5061 22.8865 24.4573C22.6375 24.4086 22.3796 24.4401 22.1492 24.5476C21.2332 24.9815 20.2166 25.1521 19.2111 25.0406C18.2055 24.9291 17.2497 24.5398 16.4484 23.9155C15.647 23.2911 15.0311 22.4557 14.668 21.5008C14.305 20.5459 14.2088 19.5084 14.3901 18.5019C14.5714 17.4955 15.0231 16.5589 15.6958 15.7948C16.3684 15.0307 17.2361 14.4686 18.2037 14.1701C19.1712 13.8716 20.2014 13.8481 21.1812 14.1024C22.1611 14.3566 23.0528 14.8787 23.7588 15.6115C23.8534 15.7095 23.928 15.8255 23.9783 15.9527C24.0286 16.0799 24.0537 16.2159 24.052 16.3529C24.0504 16.4899 24.0221 16.6252 23.9687 16.7512C23.9154 16.8771 23.838 16.9912 23.741 17.0869C23.6441 17.1826 23.5294 17.258 23.4036 17.3089C23.2779 17.3598 23.1434 17.3851 23.0079 17.3835C22.8724 17.3818 22.7386 17.3532 22.6141 17.2992C22.4896 17.2453 22.3768 17.167 22.2821 17.069C21.8407 16.6072 21.2819 16.2775 20.6672 16.116C20.0526 15.9544 19.4058 15.9674 18.7979 16.1533C18.19 16.3392 17.6446 16.691 17.2214 17.1699C16.7983 17.6489 16.5139 18.2365 16.3995 18.8683C16.285 19.5 16.3449 20.1515 16.5726 20.751C16.8003 21.3506 17.187 21.8751 17.6903 22.2669C18.1935 22.6587 18.7937 22.9027 19.4251 22.972C20.0565 23.0414 20.6945 22.9334 21.2692 22.66C21.8126 22.4059 22.4145 22.3072 23.0095 22.3745C23.6045 22.4419 24.1699 22.6728 24.6443 23.0421C25.1188 23.4114 25.4842 23.9051 25.7008 24.4695C25.9175 25.034 25.9771 25.6477 25.8733 26.244C25.7851 26.7494 25.5781 27.2259 25.2697 27.6334C24.9613 28.0409 24.5606 28.3674 24.1013 28.5856C22.5333 29.3403 20.7975 29.6676 19.0658 29.535C17.3342 29.4024 15.6669 28.8146 14.229 27.8298C12.7912 26.845 11.6327 25.4974 10.8683 23.9205C10.1039 22.3435 9.76025 20.5919 9.87127 18.8393C9.98229 17.0867 10.5442 15.3938 11.5012 13.9284C12.4583 12.4629 13.7774 11.2758 15.3277 10.4846C16.8781 9.69338 18.606 9.32555 20.3402 9.41753C22.0744 9.50951 23.7547 10.0581 25.2147 11.009C25.4577 11.1751 25.7505 11.25 26.0424 11.2205C26.3343 11.1911 26.6067 11.0592 26.8124 10.8477C26.9408 10.7195 27.0395 10.564 27.1013 10.3925C27.163 10.2211 27.1865 10.0379 27.1698 9.85613C27.1473 9.66539 27.0825 9.48224 26.9802 9.32036C26.8779 9.15849 26.7408 9.02208 26.5791 8.9213C24.6877 7.7013 22.5081 7.01483 20.2662 6.933C18.0243 6.85116 15.8015 7.37694 13.828 8.45587C11.8545 9.5348 10.2021 11.1277 9.04193 13.0695C7.88175 15.0113 7.25596 17.2315 7.22937 19.5001C7.25663 21.9819 8.00088 24.4015 9.3705 26.4609C10.7401 28.5204 12.6753 30.1299 14.9379 31.0914C17.2005 32.0528 19.6916 32.3241 22.1047 31.872C24.5178 31.4199 26.7476 30.264 28.5194 28.5467C28.613 28.4372 28.7282 28.3487 28.8575 28.2866C28.9869 28.2246 29.1276 28.1905 29.2706 28.1865C29.4137 28.1826 29.5561 28.2087 29.6886 28.2635C29.8211 28.3182 29.9409 28.4002 30.0404 28.5043C30.1398 28.6084 30.2167 28.7323 30.2662 28.8682C30.3157 29.004 30.3367 29.1488 30.3278 29.2933C30.3189 29.4377 30.2803 29.5788 30.2146 29.7073C30.1488 29.8359 30.0573 29.9492 29.9458 30.0401C27.2175 32.6976 23.5746 34.1787 19.7866 34.1707Z" fill="white"/>
</svg>
