<svg width="104" height="17" viewBox="0 0 104 17" fill="none" xmlns="http://www.w3.org/2000/svg">
<path d="M57.2705 7.92039C57.6375 7.92039 57.9895 7.7746 58.249 7.51508C58.5085 7.25557 58.6543 6.9036 58.6543 6.53659C58.6543 6.16958 58.5085 5.81761 58.249 5.55809C57.9895 5.29858 57.6375 5.15279 57.2705 5.15279H55.8444V3.72669C55.8514 3.5098 55.8147 3.29371 55.7366 3.09126C55.6584 2.88882 55.5403 2.70416 55.3894 2.54825C55.2384 2.39234 55.0577 2.26837 54.8579 2.18371C54.6581 2.09905 54.4433 2.05542 54.2263 2.05542C54.0093 2.05542 53.7945 2.09905 53.5947 2.18371C53.3948 2.26837 53.2141 2.39234 53.0632 2.54825C52.9122 2.70416 52.7941 2.88882 52.716 3.09126C52.6378 3.29371 52.6012 3.5098 52.6082 3.72669V5.15279H52.5016C52.3199 5.15279 52.1399 5.18858 51.972 5.25812C51.8041 5.32767 51.6516 5.4296 51.5231 5.55809C51.3946 5.68659 51.2927 5.83914 51.2231 6.00703C51.1536 6.17492 51.1178 6.35487 51.1178 6.53659C51.1178 6.71831 51.1536 6.89826 51.2231 7.06615C51.2927 7.23404 51.3946 7.38659 51.5231 7.51508C51.6516 7.64358 51.8041 7.74551 51.972 7.81505C52.1399 7.8846 52.3199 7.92039 52.5016 7.92039H52.6116V13.3338C52.6116 15.9745 53.9514 16.7629 55.9323 16.7629C56.5649 16.7797 57.1945 16.671 57.7847 16.4431C58.0282 16.346 58.2372 16.1787 58.3851 15.9623C58.533 15.746 58.6132 15.4905 58.6154 15.2285C58.6123 14.8737 58.4699 14.5342 58.219 14.2833C57.9681 14.0324 57.6287 13.8901 57.2739 13.887C57.2096 13.887 56.9964 13.909 56.8898 13.909C56.1658 13.909 55.8478 13.5469 55.8478 12.8026V7.92039H57.2705Z" fill="#010101"/>
<path d="M9.09114 12.9469C8.77617 12.9523 8.47083 13.0565 8.21823 13.2447C7.62517 13.7522 6.87064 14.0317 6.09008 14.033C4.32227 14.033 3.19391 12.6272 3.19391 10.8814V10.8391C3.19391 9.1474 4.34257 7.72976 5.96151 7.72976C6.70315 7.71971 7.42366 7.9767 7.99154 8.45381C8.25913 8.66148 8.58833 8.77399 8.92705 8.77354C9.11838 8.77465 9.30806 8.73801 9.48522 8.66571C9.66238 8.59341 9.82353 8.48688 9.95946 8.35221C10.0954 8.21754 10.2034 8.05738 10.2774 7.88091C10.3513 7.70443 10.3897 7.5151 10.3904 7.32376C10.3921 7.11317 10.3475 6.90477 10.2598 6.7133C10.1721 6.52183 10.0434 6.35196 9.88285 6.2157C8.92366 5.40707 7.71072 4.93848 5.99196 4.93848C2.49186 4.94017 0 7.62319 0 10.8763V10.9186C0 14.1819 2.51216 16.8209 5.93952 16.8209C7.81391 16.8209 9.02685 16.2254 9.98604 15.3525C10.196 15.1693 10.3452 14.9265 10.4137 14.6564C10.4823 14.3863 10.4669 14.1017 10.3698 13.8405C10.2726 13.5793 10.0982 13.3539 9.86981 13.1943C9.6414 13.0347 9.3698 12.9484 9.09114 12.9469Z" fill="#010101"/>
<path d="M42.4412 5.02644C41.5953 5.02644 41.0997 5.57962 40.8865 6.26137L39.0984 12.0943L37.2883 6.30874C37.0548 5.5424 36.4594 5.00952 35.6287 5.00952H35.4359C34.607 5.00952 34.0098 5.5424 33.7763 6.30874L31.9882 12.074L30.2407 6.28167C30.0073 5.53733 29.4744 5.02644 28.6657 5.02644C28.4666 5.01805 28.2678 5.04966 28.081 5.1194C27.8943 5.18914 27.7234 5.29559 27.5785 5.43247C27.4335 5.56934 27.3175 5.73387 27.2372 5.91634C27.157 6.0988 27.1141 6.2955 27.1111 6.49482C27.1223 6.76341 27.1725 7.02895 27.26 7.28315L30.0496 15.3305C30.3879 16.332 31.051 16.7786 31.8377 16.7786H31.9442C32.7326 16.7786 33.3923 16.332 33.6901 15.3948L35.5222 9.64306L37.3323 15.3948C37.63 16.332 38.2898 16.7786 39.0781 16.7786H39.1847C39.9713 16.7786 40.6311 16.332 40.9728 15.3305L43.8487 7.17658C43.9098 6.96158 43.9456 6.74014 43.9552 6.51682C43.9578 6.31837 43.9203 6.12145 43.8448 5.9379C43.7693 5.75434 43.6575 5.58795 43.5161 5.44873C43.3746 5.3095 43.2065 5.20032 43.0218 5.12775C42.837 5.05518 42.6396 5.02072 42.4412 5.02644Z" fill="#010101"/>
<path d="M47.5143 5.02612C47.3015 5.0259 47.0908 5.06768 46.8941 5.14907C46.6975 5.23045 46.5189 5.34985 46.3685 5.5004C46.2181 5.65096 46.0989 5.82972 46.0177 6.02644C45.9365 6.22315 45.8949 6.43395 45.8954 6.64676V15.0748C45.8884 15.2917 45.925 15.5077 46.0032 15.7102C46.0813 15.9126 46.1994 16.0973 46.3504 16.2532C46.5013 16.4091 46.6821 16.5331 46.8819 16.6177C47.0817 16.7024 47.2965 16.746 47.5135 16.746C47.7305 16.746 47.9453 16.7024 48.1451 16.6177C48.3449 16.5331 48.5257 16.4091 48.6766 16.2532C48.8275 16.0973 48.9456 15.9126 49.0238 15.7102C49.1019 15.5077 49.1386 15.2917 49.1316 15.0748V6.64676C49.132 6.4341 49.0905 6.22343 49.0094 6.02683C48.9284 5.83022 48.8093 5.65154 48.6591 5.501C48.5089 5.35047 48.3304 5.23104 48.134 5.14955C47.9376 5.06807 47.727 5.02612 47.5143 5.02612Z" fill="#010101"/>
<path d="M47.5144 0.916382C46.6567 0.916382 45.9919 1.48986 45.9919 2.42706V2.46935C45.9733 2.67978 45.9987 2.89178 46.0664 3.09186C46.1342 3.29195 46.2428 3.47574 46.3855 3.63156C46.5281 3.78738 46.7016 3.9118 46.895 3.99693C47.0883 4.08206 47.2972 4.12602 47.5085 4.12602C47.7197 4.12602 47.9287 4.08206 48.122 3.99693C48.3153 3.9118 48.4888 3.78738 48.6315 3.63156C48.7741 3.47574 48.8828 3.29195 48.9506 3.09186C49.0183 2.89178 49.0437 2.67978 49.0251 2.46935V2.42706C49.0302 1.48986 48.3704 0.916382 47.5144 0.916382Z" fill="#010101"/>
<path d="M67.5576 4.94024C65.9184 4.94024 64.9592 5.81315 64.2148 6.77234V2.51267C64.2012 2.09257 64.0248 1.69423 63.7228 1.40187C63.4209 1.10951 63.017 0.946045 62.5967 0.946045C62.1764 0.946045 61.7726 1.10951 61.4706 1.40187C61.1686 1.69423 60.9922 2.09257 60.9786 2.51267V15.0752C60.9716 15.292 61.0083 15.5081 61.0864 15.7106C61.1646 15.913 61.2827 16.0977 61.4336 16.2536C61.5846 16.4095 61.7653 16.5335 61.9651 16.6181C62.1649 16.7028 62.3797 16.7464 62.5967 16.7464C62.8137 16.7464 63.0285 16.7028 63.2283 16.6181C63.4282 16.5335 63.6089 16.4095 63.7599 16.2536C63.9108 16.0977 64.0289 15.913 64.107 15.7106C64.1852 15.5081 64.2218 15.292 64.2148 15.0752V10.1997C64.2148 8.66703 65.0032 7.8787 66.2449 7.8787C67.4866 7.8787 68.1971 8.66703 68.1971 10.1997V15.0752C68.1901 15.292 68.2267 15.5081 68.3049 15.7106C68.383 15.913 68.5011 16.0977 68.652 16.2536C68.803 16.4095 68.9837 16.5335 69.1836 16.6181C69.3834 16.7028 69.5982 16.7464 69.8152 16.7464C70.0322 16.7464 70.247 16.7028 70.4468 16.6181C70.6466 16.5335 70.8273 16.4095 70.9783 16.2536C71.1292 16.0977 71.2473 15.913 71.3255 15.7106C71.4036 15.5081 71.4403 15.292 71.4333 15.0752V9.18469C71.4333 6.55919 70.0055 4.94024 67.5576 4.94024Z" fill="#010101"/>
<path d="M87.1965 4.93982C85.6419 4.93982 84.4492 5.57928 83.4477 6.74993C82.8523 5.60127 81.7239 4.93982 80.2335 4.93982C78.5943 4.93982 77.6148 5.81273 76.8688 6.77192V6.64673C76.8552 6.22664 76.6787 5.8283 76.3768 5.53594C76.0748 5.24358 75.671 5.08011 75.2507 5.08011C74.8304 5.08011 74.4265 5.24358 74.1245 5.53594C73.8226 5.8283 73.6461 6.22664 73.6326 6.64673V15.0747C73.6255 15.2916 73.6622 15.5077 73.7404 15.7102C73.8185 15.9126 73.9366 16.0973 74.0875 16.2532C74.2385 16.4091 74.4192 16.5331 74.619 16.6177C74.8189 16.7024 75.0337 16.746 75.2507 16.746C75.4677 16.746 75.6825 16.7024 75.8823 16.6177C76.0821 16.5331 76.2628 16.4091 76.4138 16.2532C76.5647 16.0973 76.6828 15.9126 76.761 15.7102C76.8391 15.5077 76.8758 15.2916 76.8688 15.0747V10.1993C76.8688 8.66661 77.6148 7.87828 78.8277 7.87828C80.0407 7.87828 80.7224 8.66661 80.7224 10.1993V15.0747C80.7154 15.2916 80.7521 15.5077 80.8302 15.7102C80.9084 15.9126 81.0265 16.0973 81.1774 16.2532C81.3284 16.4091 81.5091 16.5331 81.7089 16.6177C81.9087 16.7024 82.1235 16.746 82.3405 16.746C82.5575 16.746 82.7723 16.7024 82.9721 16.6177C83.172 16.5331 83.3527 16.4091 83.5037 16.2532C83.6546 16.0973 83.7727 15.9126 83.8508 15.7102C83.929 15.5077 83.9656 15.2916 83.9586 15.0747V10.1993C83.9586 8.66661 84.7047 7.87828 85.9176 7.87828C87.1305 7.87828 87.814 8.66661 87.814 10.1993V15.0747C87.807 15.2916 87.8436 15.5077 87.9218 15.7102C88 15.9126 88.118 16.0973 88.269 16.2532C88.4199 16.4091 88.6007 16.5331 88.8005 16.6177C89.0003 16.7024 89.2151 16.746 89.4321 16.746C89.6491 16.746 89.8639 16.7024 90.0637 16.6177C90.2635 16.5331 90.4443 16.4091 90.5952 16.2532C90.7462 16.0973 90.8642 15.9126 90.9424 15.7102C91.0205 15.5077 91.0572 15.2916 91.0502 15.0747V9.13521C91.0502 6.38791 89.6021 4.93982 87.1965 4.93982Z" fill="#010101"/>
<path d="M104 10.4327C104 8.06437 102.318 4.93982 98.507 4.93982C95.1862 4.93982 92.8737 7.62284 92.8737 10.876V10.9183C92.8737 14.4099 95.4112 16.8155 98.8352 16.8155C100.486 16.8206 101.785 16.2894 102.787 15.4435C102.922 15.3234 103.03 15.1759 103.103 15.0108C103.177 14.8457 103.214 14.6668 103.213 14.486C103.219 14.3185 103.19 14.1516 103.129 13.9955C103.068 13.8394 102.976 13.6973 102.859 13.5779C102.741 13.4584 102.601 13.3641 102.445 13.3006C102.29 13.2372 102.124 13.206 101.956 13.2088C101.671 13.1953 101.39 13.2834 101.163 13.4575C100.503 13.9612 99.6941 14.2308 98.8639 14.2238C97.4158 14.2238 96.3941 13.4575 96.0743 11.9874H102.484C103.34 11.9874 104 11.3699 104 10.4327ZM96.0371 9.96583C96.2926 8.49575 97.1655 7.53825 98.507 7.53825C99.8485 7.53825 100.721 8.51774 100.913 9.96583H96.0371Z" fill="#010101"/>
<path d="M17.1164 6.90043C17.2755 6.79437 17.4053 6.65 17.494 6.48062C17.5827 6.31123 17.6274 6.12226 17.6239 5.93109C17.6127 5.62232 17.4858 5.32906 17.2682 5.10965C17.0507 4.89023 16.7585 4.76073 16.4499 4.74691C16.2152 4.7444 15.9832 4.79775 15.7732 4.90255C13.3524 6.29142 12.1801 8.15905 12.1801 10.6069C12.1801 13.0548 13.3642 14.9224 15.7715 16.3164C15.9817 16.4206 16.2136 16.4733 16.4482 16.4703C16.757 16.4569 17.0494 16.3275 17.267 16.108C17.4846 15.8885 17.6114 15.595 17.6222 15.2861C17.625 15.096 17.58 14.9083 17.4913 14.7401C17.4027 14.5719 17.2732 14.4287 17.1147 14.3236C15.5922 13.229 14.9933 12.187 14.9933 10.612C14.9933 9.03703 15.6176 7.97635 17.1164 6.90043Z" fill="#010101"/>
<path d="M22.1915 4.89612C21.9817 4.79077 21.7496 4.73739 21.5149 4.74048C21.2062 4.75431 20.9141 4.8838 20.6965 5.10322C20.479 5.32264 20.352 5.61589 20.3408 5.92467C20.3381 6.11501 20.3831 6.303 20.4717 6.47146C20.5604 6.63991 20.6899 6.78344 20.8483 6.88893C22.3709 7.98345 22.9714 9.02384 22.9714 10.6005C22.9714 12.1771 22.3438 13.2446 20.845 14.3138C20.686 14.4195 20.5562 14.5636 20.4675 14.7327C20.3789 14.9018 20.3341 15.0905 20.3375 15.2814C20.3482 15.5903 20.4751 15.8838 20.6927 16.1033C20.9103 16.3228 21.2027 16.4521 21.5115 16.4656C21.7463 16.4687 21.9784 16.4154 22.1882 16.3099C24.6056 14.916 25.7796 13.0484 25.7796 10.6005C25.7796 8.15262 24.6107 6.29176 22.1915 4.89612Z" fill="#010101"/>
</svg>
