<svg width="60" height="60" viewBox="0 0 60 60" fill="none" xmlns="http://www.w3.org/2000/svg">
<path d="M18.5156 23.8432L11.1395 29.9993L18.5156 36.1554C19.0039 36.5629 19.3105 37.1479 19.368 37.7818C19.4256 38.4157 19.2293 39.0465 18.8225 39.5355C18.4156 40.0245 17.8315 40.3316 17.1985 40.3892C16.5656 40.4468 15.9357 40.2503 15.4475 39.8428L5.86225 31.843C5.59237 31.6178 5.37525 31.3359 5.22624 31.0173C5.07724 30.6987 5 30.3512 5 29.9993C5 29.6475 5.07724 29.3 5.22624 28.9814C5.37525 28.6628 5.59237 28.3809 5.86225 28.1556L15.4475 20.1558C15.6893 19.9541 15.9683 19.802 16.2688 19.7082C16.5692 19.6145 16.8851 19.5809 17.1985 19.6094C17.5119 19.638 17.8167 19.7281 18.0953 19.8745C18.3739 20.021 18.621 20.221 18.8225 20.4631C19.0239 20.7053 19.1758 20.9848 19.2694 21.2857C19.363 21.5865 19.3965 21.903 19.368 22.2168C19.3395 22.5307 19.2496 22.8359 19.1033 23.1149C18.9571 23.394 18.7574 23.6415 18.5156 23.8432ZM53.6616 28.1556L44.0763 20.1558C43.8346 19.9541 43.5555 19.802 43.255 19.7082C42.9546 19.6145 42.6387 19.5809 42.3253 19.6094C42.0119 19.638 41.7072 19.7281 41.4285 19.8745C41.1499 20.021 40.9028 20.221 40.7013 20.4631C40.4999 20.7053 40.348 20.9848 40.2544 21.2857C40.1608 21.5865 40.1273 21.903 40.1558 22.2168C40.1843 22.5307 40.2742 22.8359 40.4205 23.1149C40.5667 23.394 40.7664 23.6415 41.0082 23.8432L48.3843 29.9993L41.0082 36.1554C40.7664 36.3572 40.5667 36.6046 40.4205 36.8837C40.2742 37.1628 40.1843 37.4679 40.1558 37.7818C40.0982 38.4157 40.2945 39.0465 40.7013 39.5355C41.1082 40.0245 41.6923 40.3316 42.3253 40.3892C42.6387 40.4177 42.9546 40.3842 43.255 40.2904C43.5555 40.1967 43.8346 40.0446 44.0763 39.8428L53.6616 31.843C53.9314 31.6178 54.1486 31.3359 54.2976 31.0173C54.4466 30.6987 54.5238 30.3512 54.5238 29.9993C54.5238 29.6475 54.4466 29.3 54.2976 28.9814C54.1486 28.6628 53.9314 28.3809 53.6616 28.1556ZM36.971 10.1444C36.3737 9.92697 35.7147 9.95604 35.1388 10.2252C34.5629 10.4944 34.1173 10.9816 33.9001 11.5797L21.1197 46.7788C21.012 47.075 20.9636 47.3896 20.9773 47.7046C20.991 48.0195 21.0665 48.3287 21.1996 48.6144C21.3326 48.9002 21.5206 49.1568 21.7527 49.3698C21.9848 49.5827 22.2566 49.7478 22.5524 49.8555C22.8483 49.9633 23.1624 50.0116 23.4769 49.9977C23.7914 49.9838 24.1 49.908 24.3853 49.7746C24.6705 49.6411 24.9267 49.4528 25.1392 49.2202C25.3517 48.9876 25.5163 48.7153 25.6237 48.419L38.4041 13.2199C38.5116 12.9237 38.5599 12.6092 38.5461 12.2944C38.5322 11.9795 38.4566 11.6705 38.3236 11.3849C38.1905 11.0993 38.0026 10.8427 37.7705 10.6299C37.5384 10.417 37.2668 10.2521 36.971 10.1444Z" fill="white"/>
</svg>
