<svg width="60" height="60" viewBox="0 0 60 60" fill="none" xmlns="http://www.w3.org/2000/svg">
<path d="M12 51.0184H15.7V43.5151C15.7029 41.5258 16.6784 39.6187 18.4125 38.2121C20.1465 36.8054 22.4976 36.0142 24.95 36.0118H36.05C38.5024 36.0142 40.8535 36.8054 42.5875 38.2121C44.3216 39.6187 45.2971 41.5258 45.3 43.5151V51.0184H49V43.5151C48.996 40.7301 47.6303 38.0601 45.2026 36.0908C42.7749 34.1215 39.4833 33.0138 36.05 33.0105H24.95C21.5167 33.0138 18.2251 34.1215 15.7974 36.0908C13.3697 38.0601 12.004 40.7301 12 43.5151V51.0184Z" fill="black" stroke="black"/>
<path d="M30.5 11.8584C31.9834 11.8584 33.4334 12.2775 34.6668 13.0627C35.9001 13.8479 36.8614 14.964 37.4291 16.2697C37.9968 17.5755 38.1453 19.0123 37.8559 20.3985C37.5665 21.7847 36.8522 23.058 35.8033 24.0574C34.7544 25.0567 33.418 25.7373 31.9632 26.0131C30.5083 26.2888 29.0003 26.1473 27.6299 25.6064C26.2594 25.0656 25.0881 24.1496 24.264 22.9745C23.4399 21.7993 23 20.4177 23 19.0044C23 17.1091 23.7902 15.2915 25.1967 13.9514C26.6032 12.6113 28.5109 11.8584 30.5 11.8584ZM30.5 9C28.4233 9 26.3932 9.58675 24.6665 10.686C22.9398 11.7853 21.594 13.3478 20.7993 15.1759C20.0045 17.0039 19.7966 19.0155 20.2018 20.9561C20.6069 22.8968 21.6069 24.6794 23.0754 26.0785C24.5438 27.4777 26.4148 28.4305 28.4516 28.8165C30.4884 29.2026 32.5996 29.0044 34.5182 28.2472C36.4368 27.49 38.0767 26.2077 39.2304 24.5625C40.3842 22.9173 41 20.9831 41 19.0044C41 16.3511 39.8938 13.8064 37.9246 11.9302C35.9555 10.054 33.2848 9 30.5 9Z" fill="black"/>
<path d="M30.5 11.8584C31.9834 11.8584 33.4334 12.2775 34.6668 13.0627C35.9001 13.8479 36.8614 14.964 37.4291 16.2697C37.9968 17.5755 38.1453 19.0123 37.8559 20.3985C37.5665 21.7847 36.8522 23.058 35.8033 24.0574C34.7544 25.0567 33.418 25.7373 31.9632 26.0131C30.5083 26.2888 29.0003 26.1473 27.6299 25.6064C26.2594 25.0656 25.0881 24.1496 24.264 22.9745C23.4399 21.7993 23 20.4177 23 19.0044C23 17.1091 23.7902 15.2915 25.1967 13.9514C26.6032 12.6113 28.5109 11.8584 30.5 11.8584M30.5 9C28.4233 9 26.3932 9.58675 24.6665 10.686C22.9398 11.7853 21.594 13.3478 20.7993 15.1759C20.0045 17.0039 19.7966 19.0155 20.2018 20.9561C20.6069 22.8968 21.6069 24.6794 23.0754 26.0785C24.5438 27.4777 26.4148 28.4305 28.4516 28.8165C30.4884 29.2026 32.5996 29.0044 34.5182 28.2472C36.4368 27.49 38.0767 26.2077 39.2304 24.5625C40.3842 22.9173 41 20.9831 41 19.0044C41 16.3511 39.8938 13.8064 37.9246 11.9302C35.9555 10.054 33.2848 9 30.5 9V9Z" stroke="black"/>
<path d="M28.8646 42.2371L25.1183 45.463L28.8646 48.6888C29.1126 48.9023 29.2684 49.2089 29.2976 49.5411C29.3268 49.8732 29.2271 50.2038 29.0205 50.46C28.8138 50.7162 28.5172 50.8772 28.1957 50.9074C27.8742 50.9376 27.5543 50.8346 27.3063 50.6211L22.4379 46.4291C22.3009 46.3111 22.1906 46.1633 22.1149 45.9964C22.0392 45.8294 22 45.6473 22 45.463C22 45.2786 22.0392 45.0965 22.1149 44.9296C22.1906 44.7626 22.3009 44.6149 22.4379 44.4969L27.3063 40.3049C27.4291 40.1992 27.5709 40.1195 27.7234 40.0704C27.876 40.0212 28.0365 40.0036 28.1957 40.0186C28.3549 40.0335 28.5096 40.0807 28.6512 40.1575C28.7927 40.2343 28.9182 40.3391 29.0205 40.4659C29.1228 40.5928 29.1999 40.7393 29.2475 40.8969C29.295 41.0546 29.3121 41.2204 29.2976 41.3849C29.2831 41.5494 29.2374 41.7093 29.1631 41.8555C29.0889 42.0017 28.9874 42.1314 28.8646 42.2371ZM38.5621 44.6026L33.6937 40.4106C33.5709 40.3049 33.4291 40.2252 33.2765 40.1761C33.124 40.127 32.9635 40.1094 32.8043 40.1243C32.6451 40.1393 32.4904 40.1865 32.3488 40.2632C32.2073 40.34 32.0818 40.4448 31.9795 40.5717C31.8772 40.6985 31.8001 40.845 31.7525 41.0027C31.705 41.1603 31.6879 41.3261 31.7024 41.4906C31.7169 41.6551 31.7626 41.815 31.8369 41.9612C31.9111 42.1075 32.0126 42.2371 32.1354 42.3429L35.8817 45.5687L32.1354 48.7945C32.0126 48.9003 31.9111 49.0299 31.8369 49.1762C31.7626 49.3224 31.7169 49.4823 31.7024 49.6468C31.6732 49.979 31.7729 50.3095 31.9795 50.5657C32.1862 50.822 32.4828 50.9829 32.8043 51.0131C32.9635 51.028 33.124 51.0104 33.2765 50.9613C33.4291 50.9122 33.5709 50.8325 33.6937 50.7268L38.5621 46.5348C38.6991 46.4168 38.8094 46.2691 38.8851 46.1021C38.9608 45.9352 39 45.7531 39 45.5687C39 45.3843 38.9608 45.2022 38.8851 45.0353C38.8094 44.8683 38.6991 44.7206 38.5621 44.6026Z" fill="black"/>
</svg>
