<svg width="23" height="27" viewBox="0 0 23 27" fill="none" xmlns="http://www.w3.org/2000/svg">
<path d="M21.68 19.0396C20.1533 17.1711 19.0754 16.2198 19.0754 11.0683C19.0754 6.35072 16.6664 4.67 14.6836 3.85372C14.4203 3.74551 14.1723 3.497 14.0921 3.22649C13.7443 2.04279 12.7693 1 11.4732 1C10.1771 1 9.20153 2.04339 8.8573 3.22768C8.77704 3.50116 8.52912 3.74551 8.26575 3.85372C6.28063 4.67119 3.874 6.34596 3.874 11.0683C3.87103 16.2198 2.79316 17.1711 1.26642 19.0396C0.633844 19.8137 1.18794 20.976 2.29435 20.976H20.658C21.7585 20.976 22.309 19.8101 21.68 19.0396Z" stroke="white" stroke-width="1.5" stroke-linecap="round" stroke-linejoin="round"/>
<path d="M15.2782 20.9761V21.9273C15.2782 22.9364 14.8773 23.9043 14.1637 24.6178C13.4502 25.3314 12.4824 25.7323 11.4732 25.7323C10.4641 25.7323 9.49628 25.3314 8.78271 24.6178C8.06915 23.9043 7.66827 22.9364 7.66827 21.9273V20.9761" stroke="white" stroke-width="1.5" stroke-linecap="round" stroke-linejoin="round"/>
</svg>
