<svg width="21" height="21" viewBox="0 0 21 21" fill="none" xmlns="http://www.w3.org/2000/svg">
<path fill-rule="evenodd" clip-rule="evenodd" d="M9.45 0C14.6691 0 18.9 4.23091 18.9 9.45C18.9 11.681 18.1269 13.7315 16.8339 15.348L20.6925 19.2075C21.1025 19.6176 21.1025 20.2824 20.6925 20.6925C20.314 21.071 19.7184 21.1001 19.3065 20.7798L19.2075 20.6925L15.348 16.8339C13.7315 18.1269 11.681 18.9 9.45 18.9C4.23091 18.9 0 14.6691 0 9.45C0 4.23091 4.23091 0 9.45 0ZM9.45 2.1C5.39071 2.1 2.1 5.39071 2.1 9.45C2.1 13.5093 5.39071 16.8 9.45 16.8C13.5093 16.8 16.8 13.5093 16.8 9.45C16.8 5.39071 13.5093 2.1 9.45 2.1Z" fill="white"/>
</svg>
